<?xml version="1.0" standalone="no"?>
<!DOCTYPE svg PUBLIC "-//W3C//DTD SVG 20010904//EN"
 "http://www.w3.org/TR/2001/REC-SVG-20010904/DTD/svg10.dtd">
<svg version="1.0" xmlns="http://www.w3.org/2000/svg"
 width="180.000000pt" height="180.000000pt" viewBox="0 0 180.000000 180.000000"
 preserveAspectRatio="xMidYMid meet">

<g transform="translate(0.000000,180.000000) scale(0.100000,-0.100000)"
fill="#000000" stroke="none">
<path d="M724 1540 c-223 -58 -409 -246 -465 -471 -28 -108 -23 -279 11 -379
71 -214 256 -384 470 -434 83 -20 237 -20 319 -1 232 55 431 254 485 485 20
83 20 237 1 319 -55 232 -250 427 -486 485 -89 22 -244 20 -335 -4z m319 -313
c83 -35 130 -106 129 -194 -1 -104 -84 -192 -189 -198 -71 -5 -83 -25 -83
-139 0 -101 -14 -136 -53 -136 -48 0 -67 36 -67 124 l0 65 79 103 c73 96 80
103 110 100 24 -3 38 4 61 27 39 39 40 82 4 116 -37 34 -78 33 -115 -4 -30
-30 -36 -59 -19 -90 7 -15 -6 -38 -70 -121 l-80 -102 0 -87 c0 -97 -14 -131
-55 -131 -47 0 -55 22 -55 146 l0 115 70 90 c63 81 70 96 70 135 0 126 149
228 263 181z m-247 -40 c-34 -44 -56 -99 -56 -138 0 -31 -20 -66 -72 -127
l-28 -33 0 101 c0 110 8 136 57 182 31 30 66 46 101 47 l23 1 -25 -33z"/>
</g>
</svg>
